# Made in Blockbench 4.12.3
mtllib flower.mtl

o cube
v 0.5625 0.5 0.5625
v 0.5625 0.5 0.4375
v 0.5625 0.3125 0.5625
v 0.5625 0.3125 0.4375
v 0.4375 0.5 0.5625
v 0.4375 0.5 0.4375
v 0.4375 0.3125 0.5625
v 0.4375 0.3125 0.4375
v 0.53125 0.3125 0.53125
v 0.53125 0.3125 0.46875
v 0.53125 0 0.53125
v 0.53125 0 0.46875
v 0.46875 0.3125 0.53125
v 0.46875 0.3125 0.46875
v 0.46875 0 0.53125
v 0.46875 0 0.46875
v 0.5 0.25 0.59375
v 0.5 0.25 0.53125
v 0.5 0.125 0.59375
v 0.5 0.125 0.53125
v 0.5 0.25 0.59375
v 0.5 0.25 0.53125
v 0.5 0.125 0.59375
v 0.5 0.125 0.53125
v 0.5 0.1875 0.46875
v 0.5 0.1875 0.40625
v 0.5 0.0625 0.46875
v 0.5 0.0625 0.40625
v 0.5 0.1875 0.46875
v 0.5 0.1875 0.40625
v 0.5 0.0625 0.46875
v 0.5 0.0625 0.40625
vt 0.25 0.625
vt 0.25 1
vt 0 1
vt 0 0.625
vt 0.25 0.625
vt 0.25 1
vt 0 1
vt 0 0.625
vt 0 0.625
vt 0 0.375
vt 0.25 0.375
vt 0.25 0.625
vt 0.375 0.75
vt 0.375 1
vt 0.625 1
vt 0.625 0.75
vt 0.25 0.625
vt 0.25 1
vt 0 1
vt 0 0.625
vt 0.25 0.625
vt 0.25 1
vt 0 1
vt 0 0.625
vt 0.375 0.375
vt 0.375 1
vt 0.25 1
vt 0.25 0.375
vt 0.375 0.375
vt 0.375 1
vt 0.25 1
vt 0.25 0.375
vt 0.5 0.75
vt 0.5 0.625
vt 0.625 0.625
vt 0.625 0.75
vt 0.375 0.375
vt 0.375 0.5
vt 0.5 0.5
vt 0.5 0.375
vt 0.375 0.375
vt 0.375 1
vt 0.25 1
vt 0.25 0.375
vt 0.375 0.375
vt 0.375 1
vt 0.25 1
vt 0.25 0.375
vt 0.5 0.5
vt 0.5 0.75
vt 0.375 0.75
vt 0.375 0.5
vt 0.375 0.5
vt 0.375 0.75
vt 0.5 0.75
vt 0.5 0.5
vt 0 0.875
vt 0 0.875
vt 0 1
vt 0 1
vt 0 1
vt 0 1
vt 0 0.875
vt 0 0.875
vt 0 1
vt 0 1
vt 0 0.75
vt 0 0.75
vt 0 1
vt 0 1
vt 0 0.75
vt 0 0.75
vt 0.375 0.5
vt 0.375 0.75
vt 0.5 0.75
vt 0.5 0.5
vt 0.5 0.5
vt 0.5 0.75
vt 0.375 0.75
vt 0.375 0.5
vt 0 0.875
vt 0 0.875
vt 0 1
vt 0 1
vt 0 1
vt 0 1
vt 0 0.875
vt 0 0.875
vt 0 1
vt 0 1
vt 0 0.75
vt 0 0.75
vt 0 1
vt 0 1
vt 0 0.75
vt 0 0.75
vn 1 0 0
vn -1 0 0
vn 0 1 0
vn 0 -1 0
vn 0 0 1
vn 0 0 -1
vn 1 0 0
vn -1 0 0
vn 0 1 0
vn 0 -1 0
vn 0 0 1
vn 0 0 -1
vn 1 0 0
vn -1 0 0
vn 0 0 0
vn 0 0 0
vn 0 0 0
vn 0 0 0
vn 1 0 0
vn -1 0 0
vn 0 0 0
vn 0 0 0
vn 0 0 0
vn 0 0 0
usemtl m_3790f841-a70b-81eb-401e-bd2cfc03d3a1
f 4/1/1 2/2/1 1/3/1 3/4/1
f 7/5/2 5/6/2 6/7/2 8/8/2
f 1/9/3 2/10/3 6/11/3 5/12/3
f 4/13/4 3/14/4 7/15/4 8/16/4
f 3/17/5 1/18/5 5/19/5 7/20/5
f 8/21/6 6/22/6 2/23/6 4/24/6
f 12/25/7 10/26/7 9/27/7 11/28/7
f 15/29/8 13/30/8 14/31/8 16/32/8
f 9/33/9 10/34/9 14/35/9 13/36/9
f 12/37/10 11/38/10 15/39/10 16/40/10
f 11/41/11 9/42/11 13/43/11 15/44/11
f 16/45/12 14/46/12 10/47/12 12/48/12
f 20/49/13 18/50/13 17/51/13 19/52/13
f 23/53/14 21/54/14 22/55/14 24/56/14
f 18/57/15 22/58/15 17/59/15 21/60/15
f 19/61/16 23/62/16 20/63/16 24/64/16
f 17/65/17 21/66/17 19/67/17 23/68/17
f 22/69/18 18/70/18 24/71/18 20/72/18
f 28/73/19 26/74/19 25/75/19 27/76/19
f 31/77/20 29/78/20 30/79/20 32/80/20
f 26/81/21 30/82/21 25/83/21 29/84/21
f 27/85/22 31/86/22 28/87/22 32/88/22
f 25/89/23 29/90/23 27/91/23 31/92/23
f 30/93/24 26/94/24 32/95/24 28/96/24